<?xml version="1.0" encoding="utf-8"?>
<!-- Generator: Adobe Illustrator 22.0.1, SVG Export Plug-In . SVG Version: 6.00 Build 0)  -->
<svg version="1.1" id="Design" xmlns="http://www.w3.org/2000/svg" xmlns:xlink="http://www.w3.org/1999/xlink" x="0px" y="0px"
	 viewBox="0 0 498.1 516.4" style="enable-background:new 0 0 498.1 516.4;" xml:space="preserve">
<path d="M0,238.8c0.2-41.3,8.2-80.6,31.4-115.4c30.3-45.4,73-67.8,128-65.4c6.3,0.3,12.6,1.1,18.8,2.8c3.7,1,5.8,0.3,8.1-3.2
	c11.9-18.5,25.2-36,39.6-52.7c1.9-2.2,3.8-4.3,6.8-4.7c3.8-0.6,7,0.7,9,4c2.3,3.9,1.7,7.7-1.3,11.1c-9.5,10.9-18.5,22.3-27,34.1
	c-3.5,4.9-6.8,9.9-10.3,14.7c-2.1,2.8-1.5,3.9,1.6,5.2c25.1,10.7,45.1,27.5,59.4,50.8c14.8,24.2,21.6,50.7,22.8,78.8
	c2,49.9-14.2,94.3-40.8,135.5c-21.5,33.2-48.1,62.1-75.7,90.2c-16.8,17.1-33.8,34.1-48.1,53.5c-4.4,5.9-8.3,12.1-12.3,18.2
	c-4.1,6.5-8,6.8-12.6,0.7c-23.1-31-42.7-64-58.7-99.1c-17.3-38.1-30-77.6-35.9-119.1C0.9,265.4-0.1,252.1,0,238.8z M131.5,216
	c10.9,11.3,18.9,23.5,25.9,36.4c10.2,18.8,17.6,38.8,23.4,59.3c0.3,1.1,0.7,2.2,0.9,3.4c1.1,4.1,3.5,6.5,7.9,5.7
	c3.8-0.7,5.6-4.4,4.3-9.2c-2.9-10.8-6.2-21.4-10.2-31.8c-10.9-28.2-24.4-54.8-46.6-76c-2-1.9-1.1-3.6-0.5-5.4
	c4.1-13.2,8.7-26.2,13.8-39.1c5.2-13,10.6-25.8,17.2-38.5c1.3,1.1,2.3,1.9,3.2,2.8c18.4,18.3,33,39.2,43.1,63.1
	c2.3,5.4,4.1,10.9,6.1,16.4c1.4,3.8,3.9,5.8,8,4.9c3.7-0.8,5.3-4.3,4.1-8.8c-0.2-1-0.6-1.9-0.9-2.8c-10.4-30.7-27.2-57.4-50-80.3
	c-7.2-7.2-7.2-7.2-2.8-16.5c0.4-0.9,0.8-1.8,1-2.8c0.6-3-0.6-5.3-3.2-6.7c-2.6-1.4-5.3-1-7.3,1.1c-1.1,1.2-1.9,2.7-2.7,4.2
	c-7.3,13.4-14.4,27.1-20,41.3c-2.4,5.9-5.6,8.8-11.8,10.2c-37.2,8.2-66.2,28.7-87.2,60.4c-4,6.1-4.2,9.7-0.4,12.1
	c3.7,2.5,6.8,1.1,11-5.2c17.6-26.4,41-44.8,71.9-53c2-0.5,3.9-1.8,6.4-1c-0.3,1-0.5,2-0.8,2.9c-12,32-21.3,64.8-27.6,98.4
	c-0.6,3.3-2.3,5.1-5,6.9c-18,11.5-33.9,25.4-45.6,43.4c-2.1,3.2-4,6.6-5.6,10c-1.6,3.5-0.6,6.6,2.9,8.4c3.4,1.7,6.1,0.5,8.1-2.6
	c0.6-1,1.1-2,1.7-3.1c9.3-17,23.1-29.8,39.3-41.5c-0.2,2.1-0.3,3.2-0.5,4.3c-4.9,32.3-7.8,64.8-8.5,97.5c-0.3,11.3-0.3,22.7-0.3,34
	c0,4,2.1,6.7,6.3,7c3.7,0.3,6.3-2.8,6.6-7.2c0-0.8,0-1.7,0-2.5c-0.2-19.5,0.2-39,1.3-58.5c0.3-5.4,0.8-10.8,1.3-16.4
	c2.3,0.6,3,2.2,4,3.4c8,9.5,14.6,19.8,19.2,31.4c1.3,3.4,3.3,5.9,7.3,5.6c4.6-0.4,6.7-4.9,4.7-10c-7-17.4-17.6-32.4-31-45.5
	c-2-2-2.7-3.8-2.3-6.6c2-13.3,3.6-26.7,5.7-40C120.8,258.4,125.4,237.4,131.5,216z"/>
<path d="M498.1,341.2c0.4,84.4-56,155.8-138.3,171.5c-70.5,13.4-128.5-10.1-173-66.4c-7.1-9-6.1-20.7,1.4-28.2
	c7.5-7.3,19-8.1,27.5-1.9c2.2,1.6,3.8,3.7,5.4,5.8c34.4,42.6,78.9,60.8,132.4,48.9c54.5-12.1,87.9-47.8,100.2-102.3
	c5.3-23.5,2.5-47.1-2-70.5c-10.2-53.3-34.8-100-66.5-143.3c-16.9-23-35.7-44.4-56.1-64.3c-2.6-2.5-4.1-2.9-6.7-0.1
	c-6.5,6.9-13.3,13.5-19.9,20.4c-8.9,9.4-21.9,10.4-30.8,2.2c-8.8-8.1-9-21.2-0.2-30.8c12.7-13.7,25.9-26.9,40.2-38.9
	c8.5-7.1,19.2-7.6,27.4-0.3c68.9,61,122.3,132.4,148.1,222.2C494.4,290,498,315.4,498.1,341.2z"/>
<path d="M368.2,437.8c-6.8-0.1-12.2-4.1-14.1-10.6c-2-6.7,0.4-13.3,6.8-17.2c10.1-6.1,18.8-13.7,26-23.1
	c6.7-8.9,11.5-18.7,14.5-29.4c2.6-9.4,10.2-14.1,18.8-11.7c8.2,2.2,12.5,10.3,9.9,19.4c-8.4,30.3-26.3,53.4-53,69.9
	C373.6,437.4,371.6,437.8,368.2,437.8z"/>
<path d="M433,312.1c0.2,8.5-5.5,15.1-13.5,15.7c-8.6,0.6-15.1-4.8-16.3-13.4c-1.6-12,3.5-19.9,13.3-20.5
	C426.4,293.3,432.7,300.3,433,312.1z"/>
</svg>
