<?xml version="1.0" encoding="utf-8"?>
<!-- Generator: Adobe Illustrator 22.0.1, SVG Export Plug-In . SVG Version: 6.00 Build 0)  -->
<svg version="1.1" id="Design" xmlns="http://www.w3.org/2000/svg" xmlns:xlink="http://www.w3.org/1999/xlink" x="0px" y="0px"
	 viewBox="0 0 134.5 138.7" style="enable-background:new 0 0 134.5 138.7;" xml:space="preserve">
<g>
	<path d="M29.6,138c-2.1-5.5-4.4-11-6.4-16.6c-1-2.9-2.6-4.7-5.6-5.7c-5.6-1.9-11.1-4.3-17.7-6.8c6.4-6.3,12.1-12.2,18.1-17.8
		c2.7-2.5,2.8-4.2-0.5-5.8c-2.7-1.3-3.9-3.4-3.4-6.4c1.1-6.7-0.4-12.9-4.4-18.3c-1.6-2.1-1.8-4.1-0.1-6.3c4.2-5.6,5.4-12,4.2-18.8
		c-0.5-2.7,0.3-4.5,2.7-5.8c6-3.2,10-8.2,11.6-14.8c0.8-3.1,2.8-4.4,5.7-4.5c6.5-0.2,11.8-3,16-7.8c2.1-2.4,4.4-3.2,7.5-1.8
		c5.9,2.7,11.9,2.2,17.8-0.2c2.8-1.1,5.1-1,7.2,1.4C87,7.3,92.8,9.7,99.6,10c2.8,0.1,4.3,1.4,5,3.9c1.8,6.5,5.7,11.5,11.8,14.7
		c2.5,1.3,3.6,3.2,3.1,6.1c-1.1,6.7,0.3,12.9,4.4,18.3c1.7,2.3,1.7,4.5,0.1,6.8c-4,5.5-5.5,11.6-4,18.3c0.7,3.2-0.9,5.1-3.4,6.4
		c-3.7,1.9-3.2,3.6-0.4,6.1c6.1,5.7,11.9,11.6,18.4,18.1c-6.4,2.5-12.1,5-18,7c-2.6,0.9-4.1,2.4-5,5c-2.1,5.8-4.3,11.4-6.9,18
		c-7.3-7.4-14.4-14.1-21-21.3c-7.6-8.2-25.1-7.8-32.5,0.1c-6.5,6.9-13.4,13.4-20.2,20.1C30.7,137.8,30.3,137.8,29.6,138z
		 M113.2,40.8c1.7-5.4-1-8.7-5.4-10.8c-4.4-2.1-5.8-6.3-7.2-10.3c-1-2.7-2.5-4.2-5.3-4.3c-5.8-0.2-10.6-2.4-14.4-6.8
		c-1.9-2.2-4.1-2.4-6.7-1.4C69,9.4,63.9,9.6,58.7,7.4c-2.5-1.1-4.7-0.9-6.7,1.4c-3.7,4.5-8.5,6.9-14.3,7.1c-3.1,0.1-4.5,1.8-5.2,4.4
		C31,25.6,28,29.8,23,32.4c-2.6,1.3-3.4,3.4-2.9,6.2c1,5.7-0.1,10.9-3.6,15.6c-1.6,2.1-1.5,4.3,0.1,6.4c3.5,4.6,4.7,9.8,3.7,15.5
		c-0.5,2.8,0.6,4.7,3.1,6.1c4.9,2.7,8.4,6.5,9.8,12c0.8,3.1,2.8,4.3,5.7,4.4c5.6,0.2,10.3,2.5,13.9,6.7c2,2.2,4.2,2.4,6.7,1.3
		c4.9-2.1,10-2.5,14.9-0.3c3.3,1.5,5.8,0.5,7.9-2c3.4-4.1,7.9-5.9,13.1-6.2c3-0.2,4.9-1.6,5.7-4.6c1.4-5.2,4.2-9.4,9.1-11.8
		c3-1.5,3.9-3.8,3.2-7c-1-5.1,0-9.9,3.1-14.2c2.1-2.8,1.8-5.3-0.1-8.2C114.4,48.9,112,45.3,113.2,40.8z M108.4,92.1
		c-0.8,1.8-1.7,3.3-2.1,4.9c-1.1,4.4-3.7,6.6-8.4,6.8c-4,0.2-7.8,1.1-10.8,4.3c-1.6,1.7-2.1,2.6-0.2,4.3c4.5,4.2,8.8,8.6,13.1,13
		c1.8,1.8,3,2.2,3.6-0.7c1.8-10.1,8.3-15.2,17.8-17.2c0.6-0.1,1.1-0.5,1.7-0.8C118.1,101.8,113.4,97.1,108.4,92.1z M11.6,106.8
		c0.5,0.3,0.9,0.6,1.4,0.7c9.4,2.1,16.2,7,17.9,17.2c0.6,3.4,2.2,2.3,3.9,0.6c3.5-3.6,7.1-7.1,10.6-10.6c4.2-4.2,3.2-7.7-2.7-9.4
		c-0.5-0.1-1-0.2-1.5-0.2c-8.3,0.2-13.3-3.8-15.1-11.8c-0.1-0.2-0.4-0.4-0.4-0.3C21.2,97.5,16.5,102,11.6,106.8z"/>
	<path d="M107.1,57.7c0,21.9-18.1,40.1-40,40.2C45,98.1,26.7,79.8,26.7,57.6c0-22,18-40.1,40-40.2C88.8,17.3,107.1,35.6,107.1,57.7z
		 M101.1,57.6c0-18.6-15.4-34.1-34-34.2c-18.9-0.1-34.5,15.5-34.4,34.3c0.1,18.7,15.4,34.1,34,34.2C85.5,92,101.2,76.4,101.1,57.6z"
		/>
	<path d="M66.5,26c0.8,1.1,1.4,1.7,1.7,2.4c4.9,11.1,13.2,17.3,25.5,18.1c0.8,0.1,1.6,0.5,2.9,1c-3.1,4-6,7.8-9.1,11.4
		c-2.4,2.7-3.4,5.4-2.7,9c0.6,3.8,0.5,7.6,0.8,11.5c0.2,2.1-0.3,3.6-2.6,2.2c-10.5-6.2-20.9-6-31.3,0.4c-2.2,1.3-3.2,0-2.7-2.2
		c2.9-12.5-2-22.2-10.9-30.4c-0.2-0.2-0.3-0.6-0.7-1.4c4.7-1.3,9.2-2.8,13.8-3.8c3.5-0.8,5.9-2.4,7.6-5.7C61,34.3,63.8,30.4,66.5,26
		z M66.4,36.7c-3.1,9.2-9.3,13.7-20,14.4c8.7,6.3,10.8,13.7,8.3,23.9c8.7-6.3,16.4-6,25.3-0.4c-2.7-9.4-1.4-16.2,4.7-21.9
		c2.3-2.2-0.7-2.6-2.1-2.8c-6.1-0.9-11-3.3-13.5-9.4C68.7,39.6,67.8,38.7,66.4,36.7z"/>
</g>
</svg>
