<?xml version="1.0" encoding="utf-8"?>
<!-- Generator: Adobe Illustrator 22.0.1, SVG Export Plug-In . SVG Version: 6.00 Build 0)  -->
<svg version="1.1" id="Design" xmlns="http://www.w3.org/2000/svg" xmlns:xlink="http://www.w3.org/1999/xlink" x="0px" y="0px"
	 viewBox="0 0 196.6 168.1" style="enable-background:new 0 0 196.6 168.1;" xml:space="preserve">
<g>
	<path d="M51.9,0C69.2,0.3,83.2,6.6,95,17.7c2.7,2.5,3.9,2.6,6.5,0c18.6-17.5,43.3-22.4,64-13c24.2,11,37.1,39.1,28.4,62
		c-2.8,7.3-7,13.6-12.4,19.1c-26.5,26.7-53.2,53.3-79.7,80.1c-2.7,2.7-4.1,2.8-6.9,0C68.7,139.5,42.2,113.1,16,86.6
		C8.6,79.2,3,70.5,0.9,60.1c-4.6-22.5,9.5-47,32-56.2C39.2,1.3,45.9,0.2,51.9,0z M182.8,50.6c-0.2-22-22.7-40.5-45.5-35.8
		c-13.5,2.8-24.4,10.4-33.8,20c-5.2,5.3-5,5.4-9.9,0.3C86.3,27.6,78,21.5,68.4,17.5C42.4,6.6,13.9,24.6,14,51.9
		c0,11.1,6.3,19.4,13.7,26.9c22.4,22.6,45,45,67.4,67.5c2.6,2.6,3.9,2.8,6.6,0.1c21.9-22.1,44-44.1,66-66.1
		c4.6-4.6,8.4-9.9,11.5-15.6C181.2,60.7,182.9,56.6,182.8,50.6z"/>
	<path d="M167.1,46.4c-1.5,1.7-2.1,2.5-2.8,3.1c-18.7,18.7-37.5,37.4-56.2,56.2c-2.2,2.2-3.4,2-5.5-0.1C93.4,96.2,84,87,74.6,77.8
		c-1.8-1.8-1.8-2.9,0-4.8c7.5-7.9,7.4-8,15-0.4c4,4,8.2,7.8,11.9,12.1c2.8,3.2,4.5,3.5,7.7,0.2c14.5-14.9,29.4-29.4,44-44.3
		c2.8-2.9,4.4-2.8,7,0.1C162.1,42.8,164.7,44.5,167.1,46.4z"/>
</g>
</svg>
