<?xml version="1.0" encoding="utf-8"?>
<!-- Generator: Adobe Illustrator 22.0.1, SVG Export Plug-In . SVG Version: 6.00 Build 0)  -->
<svg version="1.1" id="Design" xmlns="http://www.w3.org/2000/svg" xmlns:xlink="http://www.w3.org/1999/xlink" x="0px" y="0px"
	 viewBox="0 0 475.5 382.9" style="enable-background:new 0 0 475.5 382.9;" xml:space="preserve">
<style type="text/css">
	.st0{fill:none;}
</style>
<path d="M220.8,242.9c-2.7,0-7.2-0.4-11.6-1.3c-25.1-5.2-34.2-28.8-26.1-48.9c4-10,10.5-18.2,18-25.8c14.2-14.4,30.7-25.7,48.2-35.6
	c22.2-12.6,45.6-21.9,70.6-27.2c11.6-2.4,23.3-3.5,35-1c15.2,3.3,25.3,13.6,27.9,28.8c1.5,9.2-0.9,17.6-5.2,25.7
	c-5.4,10.1-12.9,18.4-21.3,26c-18.5,16.6-39.3,29.5-61.8,39.9c-16.1,7.4-32.8,13.4-50.2,17C237,241.9,229.9,242.8,220.8,242.9z
	 M362.5,139.4c0-9.3-3.5-14-10.6-16.1c-2.3-0.7-4.6-1-7-1.2c-8.4-0.4-16.5,0.9-24.6,2.8c-33.1,7.9-63.4,21.9-90.8,42.2
	c-8.8,6.5-16.9,13.6-22.9,22.8c-3.7,5.7-6.2,11.9-5.8,18.9c0.3,5.5,3,9.4,8,11.7c3.7,1.7,7.7,2.3,11.6,2.3c6.7,0,13.4-0.9,19.9-2.4
	c35.5-8.1,67.8-23,96.7-45.2c7.6-5.8,14.5-12.4,19.8-20.6C360.2,149.4,362.5,143.9,362.5,139.4z"/>
<path class="st0" d="M198.6,132.3c17.3-13.2,35.7-24.7,55.3-34.4c1.3-0.6,2.6-1.3,3.9-1.9c0.4-0.2,0.9-0.3,0.7-0.9
	c-1.1-3.6-0.8-7.3-1.6-11c-1.5-7.3-4.2-14.1-6.9-20.9c-3.8-9.5-6.7-19.2-6-29.6c0-0.1-0.1-0.3-0.2-0.5c-0.2,0.1-0.4,0.2-0.5,0.3
	c-14.5,11.8-26.6,25.7-35.2,42.5c-9.2,18-13.2,36.9-10.9,57.2C198,133,198.3,132.5,198.6,132.3z"/>
<path class="st0" d="M206.1,262.6c6-0.1,13.6-0.8,21-2c18.7-2.8,36.7-8,54.3-14.9c12.1-4.7,24.2-9.8,35.3-16.7
	c10.5-6.5,20.7-13.5,31.1-20.3c5.9-3.9,12.1-7.7,17.7-12c8.1-6.3,15.5-13.6,22.4-21.2c9.7-10.7,18.3-22.2,24.1-35.5
	c3.5-7.9,5.7-16,5.3-24.8c-0.3-7.6-3.6-13.4-9.8-17.6c-4.2-2.9-8.9-4.8-13.8-6.2c-11.5-3.2-23.2-3.3-35-2.8
	c-14.6,0.7-28.9,3.4-42.9,7.4c-26.4,7.4-51.2,18.6-75,32.3c-19,10.9-36.7,23.6-52.6,38.7c-11.1,10.5-21.3,21.7-29.5,34.8
	c-5.4,8.6-9.7,17.6-10.4,27.9c-0.6,8.7,1.8,16.1,9.2,21.4c4.2,3.1,8.8,5.4,13.7,7.1C182.1,261.9,193.3,262.8,206.1,262.6z"/>
<path class="st0" d="M337.7,359c35.8-8.5,64.9-27.9,87-57.4c19.5-25.9,29.7-55.3,30.9-87.7c0.9-22.7-3.2-44.6-11.9-65.6
	c-1.9-4.7-4-9.2-6.8-14c-0.2,0.8-0.3,1.1-0.4,1.5c-2.9,12.3-8.4,23.5-15.4,33.9c-10.8,15.8-24.3,29.1-39.3,40.8
	c-27.7,21.7-57.8,39.2-90.1,53c-26.5,11.3-53.8,19.9-82.8,21.9c-11.7,0.8-23.3,0.3-34.7-2.6c-3.2-0.8-6.2-1.9-9.6-2.9
	c0.3,0.6,0.5,1,0.7,1.4c3.2,6.4,7.1,12.4,11.1,18.2c9.4,13.5,20.3,25.8,33.9,35.2C249.2,361.4,291.8,369.9,337.7,359z"/>
<path d="M338.1,379.3c21.7-4.7,41.7-13.2,60.1-25.7c37.4-25.4,61.3-60.3,72.4-104c2.6-10.2,4.1-20.7,4.6-31.2c0-0.7,0.2-1.3,0.3-1.9
	c0-5.5,0-11,0-16.5c-0.5-4.2-1.3-8.3-1.5-12.5c-0.2-5.3-1.3-10.4-2.3-15.5c-3.1-14.9-8.1-29.2-15-42.8c-4.8-9.5-11.3-17.9-17.8-26.2
	c-4.9-6.3-10.3-12.2-16.3-17.4c-9.2-8-20.4-12.2-32.2-14.7c-12.7-2.7-25.5-2.7-38.4-1.7c-25.3,2-49.5,8.3-73.1,17.5
	c-0.8,0.3-1.6,1-1.9-0.7c-1.2-10-4.9-19.3-8-28.8c-2.2-6.6-4.1-13.3-4.6-20.2c-0.6-7.8,0.9-15.1,4.5-22.1c2.1-4.1,1.7-8-1.3-11.6
	c-1.1-1.4-2.5-2.5-4.4-2.7c-0.3,0-0.7-0.2-0.7-0.7c-1.5,0-2.9,0-4.4,0c-19.5,10-36,23.5-50,40.2c-6.9,8.3-12.9,17.2-17.8,26.9
	c-0.7,1.3-1,1.7-2.3,0.5c-25.9-22-55.2-37.5-88.4-45.1c-30.6-7-60.8-6.2-90.6,4.1c-4.7,1.6-7.6,4.5-9,9.2c0,1.2,0,2.4,0,3.7
	c1,3.2,3.2,5.1,6.1,6.7C18.6,53,25.4,64.1,28.9,77.6c2.4,9.4,3.3,18.9,4,28.6c0.8,12.3,2.5,24.3,6.9,35.9
	c7.8,20.6,21.4,36.2,40.6,47c15.7,8.9,32.6,13.6,50.4,15.8c1.4,0.2,3.4-0.1,4,0.7c0.7,0.9-0.7,2.5-1.2,3.8
	c-3.3,8.7-5.4,17.7-4.8,27.1c0.3,4.1,0.9,8.2,2.5,11.9c3.1,7.3,5.4,14.9,8.1,22.3c10.5,29.2,27.8,53.8,51.4,73.9
	c14.7,12.5,31.6,21.5,49.7,28.1c16,5.8,32.6,9.3,49.6,10.3h24.8C322.6,382.1,330.4,381,338.1,379.3z M208.1,75.8
	c8.6-16.8,20.6-30.6,35.2-42.5c0.1-0.1,0.3-0.2,0.5-0.3c0.1,0.2,0.2,0.3,0.2,0.5c-0.7,10.4,2.3,20.1,6,29.6
	c2.7,6.8,5.4,13.7,6.9,20.9c0.7,3.6,0.4,7.4,1.6,11c0.2,0.6-0.3,0.7-0.7,0.9c-1.3,0.6-2.6,1.3-3.9,1.9c-19.5,9.7-38,21.2-55.3,34.4
	c-0.4,0.3-0.7,0.7-1.4,0.7C194.9,112.7,198.9,93.8,208.1,75.8z M144.7,186.1c-21-0.9-40.9-5.3-58.8-16.8
	c-17.8-11.5-28.2-27.7-31-48.7c-1.4-10.2-1.9-20.4-2.8-30.6c-1.6-18.1-7.8-34.2-20-47.9c-0.2-0.3-0.6-0.5-0.5-1.1
	c21.7-4.5,43.3-3.9,64.8,1.1c32.2,7.6,60.2,23.1,84.4,45.5c0.7,0.7,0.9,1.2,0.7,2.2c-4.5,15.4-5.8,31.1-3.7,47
	c0.4,3.2,1,6.4,1.7,9.5c0.3,1.2,0,1.9-0.9,2.7c-1.6,1.3-3.1,2.7-4.8,4.2c-1.8-3.3-3.5-6.6-5.3-9.8c-15.2-27.4-34.3-51.7-57.8-72.6
	c-1.3-1.2-2.6-2.4-4-3.4c-6.2-4.5-15.4-0.6-16.5,6.9C89.7,77.5,91,80,93.4,82c9.1,7.8,17.7,16.3,25.6,25.3
	c15.9,18.2,29,38.2,39.6,59.8c0.5,1.1,0.5,1.8-0.3,2.7c-4.2,4.8-8.1,9.9-11.7,15.2C146.1,185.7,145.7,186.2,144.7,186.1z
	 M148.3,229.7c0.7-10.3,5-19.3,10.4-27.9c8.1-13,18.4-24.2,29.5-34.8c15.9-15.1,33.6-27.8,52.6-38.7c23.7-13.6,48.5-24.8,75-32.3
	c14.1-3.9,28.3-6.6,42.9-7.4c11.8-0.6,23.5-0.4,35,2.8c4.9,1.4,9.5,3.3,13.8,6.2c6.3,4.2,9.5,10,9.8,17.6c0.4,8.7-1.8,16.9-5.3,24.8
	c-5.9,13.3-14.4,24.8-24.1,35.5c-6.9,7.7-14.3,14.9-22.4,21.2c-5.6,4.4-11.7,8.1-17.7,12c-10.3,6.8-20.6,13.7-31.1,20.3
	c-11.1,6.9-23.1,11.9-35.3,16.7c-17.6,6.9-35.6,12.1-54.3,14.9c-7.5,1.1-15,1.8-21,2c-12.9,0.2-24-0.7-34.9-4.4
	c-4.9-1.7-9.5-4-13.7-7.1C150.2,245.8,147.8,238.3,148.3,229.7z M210.3,334.7c-13.7-9.4-24.5-21.6-33.9-35.2
	c-4.1-5.8-7.9-11.8-11.1-18.2c-0.2-0.4-0.4-0.8-0.7-1.4c3.3,1,6.4,2.1,9.6,2.9c11.4,2.8,23,3.4,34.7,2.6c29-2,56.3-10.5,82.8-21.9
	c32.3-13.8,62.5-31.3,90.1-53c15-11.7,28.5-25,39.3-40.8c7.1-10.4,12.5-21.6,15.4-33.9c0.1-0.4,0.2-0.7,0.4-1.5
	c2.7,4.7,4.8,9.3,6.8,14c8.8,21,12.8,42.9,11.9,65.6c-1.3,32.4-11.4,61.8-30.9,87.7c-22.1,29.4-51.2,48.9-87,57.4
	C291.8,369.9,249.2,361.4,210.3,334.7z"/>
</svg>
