<?xml version="1.0" encoding="utf-8"?>
<!-- Generator: Adobe Illustrator 21.0.0, SVG Export Plug-In . SVG Version: 6.00 Build 0)  -->
<svg version="1.1" id="Layer_1" xmlns="http://www.w3.org/2000/svg" xmlns:xlink="http://www.w3.org/1999/xlink" x="0px" y="0px"
	 viewBox="0 0 54.6 54.6" style="enable-background:new 0 0 54.6 54.6;" xml:space="preserve">
<g>
	<g>
		<path d="M27.3,0C12.2,0,0,12.2,0,27.3s12.2,27.3,27.3,27.3s27.3-12.2,27.3-27.3S42.3,0,27.3,0z M34.9,16.2c0,0.2-0.2,0.4-0.4,0.4
			h-3.3c-0.8,0-1.5,0.7-1.5,1.5v3.4h4.7c0.2,0,0.4,0.2,0.4,0.5l-0.4,4.8c0,0.2-0.2,0.4-0.4,0.4h-4.3v16.1c0,0.2-0.2,0.4-0.4,0.4
			h-5.9c-0.2,0-0.4-0.2-0.4-0.4V27.2h-2.9c-0.2,0-0.4-0.2-0.4-0.4v-4.8c0-0.2,0.2-0.4,0.4-0.4H23v-4.7c0-3.3,2.6-5.9,5.9-5.9h5.5
			c0.2,0,0.4,0.2,0.4,0.4V16.2z"/>
	</g>
</g>
</svg>
