<?xml version="1.0" encoding="utf-8"?>
<!-- Generator: Adobe Illustrator 21.0.0, SVG Export Plug-In . SVG Version: 6.00 Build 0)  -->
<svg version="1.1" id="Layer_1" xmlns="http://www.w3.org/2000/svg" xmlns:xlink="http://www.w3.org/1999/xlink" x="0px" y="0px"
	 viewBox="0 0 54.2 54.2" style="enable-background:new 0 0 54.2 54.2;" xml:space="preserve">
<style type="text/css">
	.st0{fill:#FFFFFF;}
</style>
<g>
	<path class="st0" d="M32.7,27.1c0,3-2.4,5.4-5.4,5.4c-3,0-5.4-2.4-5.4-5.4c0-3,2.4-5.4,5.4-5.4C30.3,21.7,32.7,24.1,32.7,27.1z"/>
	<path class="st0" d="M34.1,13H20.5c-3.9,0-7.1,3.2-7.1,7.1v13.6c0,3.9,3.2,7.1,7.1,7.1h13.6c3.9,0,7.1-3.2,7.1-7.1V20.1
		C41.1,16.2,38,13,34.1,13z M27.3,35.5c-4.7,0-8.4-3.8-8.4-8.4c0-4.7,3.8-8.4,8.4-8.4c4.6,0,8.4,3.8,8.4,8.4
		C35.8,31.8,32,35.5,27.3,35.5z M36.3,20.1c-1.1,0-2-0.9-2-2s0.9-2,2-2s2,0.9,2,2S37.4,20.1,36.3,20.1z"/>
	<path class="st0" d="M27.1,3.1C14,3.1,3.4,13.8,3.4,26.9C3.4,40,14,50.6,27.1,50.6c13.1,0,23.8-10.6,23.8-23.8
		C50.9,13.8,40.2,3.1,27.1,3.1z M34.1,44H20.5c-5.7,0-10.3-4.6-10.3-10.3V20.1c0-5.7,4.6-10.3,10.3-10.3h13.6
		c5.7,0,10.3,4.6,10.3,10.3v13.6C44.4,39.4,39.7,44,34.1,44z"/>
	<g>
		<path d="M27.3,21.7c-3,0-5.4,2.4-5.4,5.4c0,3,2.4,5.4,5.4,5.4c3,0,5.4-2.4,5.4-5.4C32.7,24.1,30.3,21.7,27.3,21.7z M27.3,21.7
			c-3,0-5.4,2.4-5.4,5.4c0,3,2.4,5.4,5.4,5.4c3,0,5.4-2.4,5.4-5.4C32.7,24.1,30.3,21.7,27.3,21.7z M34.1,13H20.5
			c-3.9,0-7.1,3.2-7.1,7.1v13.6c0,3.9,3.2,7.1,7.1,7.1h13.6c3.9,0,7.1-3.2,7.1-7.1V20.1C41.1,16.2,38,13,34.1,13z M27.3,35.5
			c-4.7,0-8.4-3.8-8.4-8.4c0-4.7,3.8-8.4,8.4-8.4c4.6,0,8.4,3.8,8.4,8.4C35.8,31.8,32,35.5,27.3,35.5z M36.3,20.1c-1.1,0-2-0.9-2-2
			s0.9-2,2-2s2,0.9,2,2S37.4,20.1,36.3,20.1z M27.3,21.7c-3,0-5.4,2.4-5.4,5.4c0,3,2.4,5.4,5.4,5.4c3,0,5.4-2.4,5.4-5.4
			C32.7,24.1,30.3,21.7,27.3,21.7z M27.3,21.7c-3,0-5.4,2.4-5.4,5.4c0,3,2.4,5.4,5.4,5.4c3,0,5.4-2.4,5.4-5.4
			C32.7,24.1,30.3,21.7,27.3,21.7z M27.3,21.7c-3,0-5.4,2.4-5.4,5.4c0,3,2.4,5.4,5.4,5.4c3,0,5.4-2.4,5.4-5.4
			C32.7,24.1,30.3,21.7,27.3,21.7z M27.3,21.7c-3,0-5.4,2.4-5.4,5.4c0,3,2.4,5.4,5.4,5.4c3,0,5.4-2.4,5.4-5.4
			C32.7,24.1,30.3,21.7,27.3,21.7z M27.3,21.7c-3,0-5.4,2.4-5.4,5.4c0,3,2.4,5.4,5.4,5.4c3,0,5.4-2.4,5.4-5.4
			C32.7,24.1,30.3,21.7,27.3,21.7z M34.1,13H20.5c-3.9,0-7.1,3.2-7.1,7.1v13.6c0,3.9,3.2,7.1,7.1,7.1h13.6c3.9,0,7.1-3.2,7.1-7.1
			V20.1C41.1,16.2,38,13,34.1,13z M27.3,35.5c-4.7,0-8.4-3.8-8.4-8.4c0-4.7,3.8-8.4,8.4-8.4c4.6,0,8.4,3.8,8.4,8.4
			C35.8,31.8,32,35.5,27.3,35.5z M36.3,20.1c-1.1,0-2-0.9-2-2s0.9-2,2-2s2,0.9,2,2S37.4,20.1,36.3,20.1z M27.3,21.7
			c-3,0-5.4,2.4-5.4,5.4c0,3,2.4,5.4,5.4,5.4c3,0,5.4-2.4,5.4-5.4C32.7,24.1,30.3,21.7,27.3,21.7z M27.3,21.7c-3,0-5.4,2.4-5.4,5.4
			c0,3,2.4,5.4,5.4,5.4c3,0,5.4-2.4,5.4-5.4C32.7,24.1,30.3,21.7,27.3,21.7z M27.3,21.7c-3,0-5.4,2.4-5.4,5.4c0,3,2.4,5.4,5.4,5.4
			c3,0,5.4-2.4,5.4-5.4C32.7,24.1,30.3,21.7,27.3,21.7z M27.3,21.7c-3,0-5.4,2.4-5.4,5.4c0,3,2.4,5.4,5.4,5.4c3,0,5.4-2.4,5.4-5.4
			C32.7,24.1,30.3,21.7,27.3,21.7z M27.3,21.7c-3,0-5.4,2.4-5.4,5.4c0,3,2.4,5.4,5.4,5.4c3,0,5.4-2.4,5.4-5.4
			C32.7,24.1,30.3,21.7,27.3,21.7z M27.3,21.7c-3,0-5.4,2.4-5.4,5.4c0,3,2.4,5.4,5.4,5.4c3,0,5.4-2.4,5.4-5.4
			C32.7,24.1,30.3,21.7,27.3,21.7z M27.3,21.7c-3,0-5.4,2.4-5.4,5.4c0,3,2.4,5.4,5.4,5.4c3,0,5.4-2.4,5.4-5.4
			C32.7,24.1,30.3,21.7,27.3,21.7z M34.1,13H20.5c-3.9,0-7.1,3.2-7.1,7.1v13.6c0,3.9,3.2,7.1,7.1,7.1h13.6c3.9,0,7.1-3.2,7.1-7.1
			V20.1C41.1,16.2,38,13,34.1,13z M27.3,35.5c-4.7,0-8.4-3.8-8.4-8.4c0-4.7,3.8-8.4,8.4-8.4c4.6,0,8.4,3.8,8.4,8.4
			C35.8,31.8,32,35.5,27.3,35.5z M36.3,20.1c-1.1,0-2-0.9-2-2s0.9-2,2-2s2,0.9,2,2S37.4,20.1,36.3,20.1z M27.3,21.7
			c-3,0-5.4,2.4-5.4,5.4c0,3,2.4,5.4,5.4,5.4c3,0,5.4-2.4,5.4-5.4C32.7,24.1,30.3,21.7,27.3,21.7z M34.1,13H20.5
			c-3.9,0-7.1,3.2-7.1,7.1v13.6c0,3.9,3.2,7.1,7.1,7.1h13.6c3.9,0,7.1-3.2,7.1-7.1V20.1C41.1,16.2,38,13,34.1,13z M27.3,35.5
			c-4.7,0-8.4-3.8-8.4-8.4c0-4.7,3.8-8.4,8.4-8.4c4.6,0,8.4,3.8,8.4,8.4C35.8,31.8,32,35.5,27.3,35.5z M36.3,20.1c-1.1,0-2-0.9-2-2
			s0.9-2,2-2s2,0.9,2,2S37.4,20.1,36.3,20.1z M27.3,21.7c-3,0-5.4,2.4-5.4,5.4c0,3,2.4,5.4,5.4,5.4c3,0,5.4-2.4,5.4-5.4
			C32.7,24.1,30.3,21.7,27.3,21.7z M27.1,0C12.2,0,0,12.2,0,27.1c0,15,12.2,27.1,27.1,27.1c14.9,0,27.1-12.2,27.1-27.1
			C54.2,12.2,42.1,0,27.1,0z M34.1,44H20.5c-5.7,0-10.3-4.6-10.3-10.3V20.1c0-5.7,4.6-10.3,10.3-10.3h13.6c5.7,0,10.3,4.6,10.3,10.3
			v13.6C44.4,39.4,39.7,44,34.1,44z M34.1,13H20.5c-3.9,0-7.1,3.2-7.1,7.1v13.6c0,3.9,3.2,7.1,7.1,7.1h13.6c3.9,0,7.1-3.2,7.1-7.1
			V20.1C41.1,16.2,38,13,34.1,13z M27.3,35.5c-4.7,0-8.4-3.8-8.4-8.4c0-4.7,3.8-8.4,8.4-8.4c4.6,0,8.4,3.8,8.4,8.4
			C35.8,31.8,32,35.5,27.3,35.5z M36.3,20.1c-1.1,0-2-0.9-2-2s0.9-2,2-2s2,0.9,2,2S37.4,20.1,36.3,20.1z M27.3,21.7
			c-3,0-5.4,2.4-5.4,5.4c0,3,2.4,5.4,5.4,5.4c3,0,5.4-2.4,5.4-5.4C32.7,24.1,30.3,21.7,27.3,21.7z M27.3,21.7c-3,0-5.4,2.4-5.4,5.4
			c0,3,2.4,5.4,5.4,5.4c3,0,5.4-2.4,5.4-5.4C32.7,24.1,30.3,21.7,27.3,21.7z M27.3,21.7c-3,0-5.4,2.4-5.4,5.4c0,3,2.4,5.4,5.4,5.4
			c3,0,5.4-2.4,5.4-5.4C32.7,24.1,30.3,21.7,27.3,21.7z M34.1,13H20.5c-3.9,0-7.1,3.2-7.1,7.1v13.6c0,3.9,3.2,7.1,7.1,7.1h13.6
			c3.9,0,7.1-3.2,7.1-7.1V20.1C41.1,16.2,38,13,34.1,13z M27.3,35.5c-4.7,0-8.4-3.8-8.4-8.4c0-4.7,3.8-8.4,8.4-8.4
			c4.6,0,8.4,3.8,8.4,8.4C35.8,31.8,32,35.5,27.3,35.5z M36.3,20.1c-1.1,0-2-0.9-2-2s0.9-2,2-2s2,0.9,2,2S37.4,20.1,36.3,20.1z
			 M27.3,21.7c-3,0-5.4,2.4-5.4,5.4c0,3,2.4,5.4,5.4,5.4c3,0,5.4-2.4,5.4-5.4C32.7,24.1,30.3,21.7,27.3,21.7z M27.3,21.7
			c-3,0-5.4,2.4-5.4,5.4c0,3,2.4,5.4,5.4,5.4c3,0,5.4-2.4,5.4-5.4C32.7,24.1,30.3,21.7,27.3,21.7z M27.3,21.7c-3,0-5.4,2.4-5.4,5.4
			c0,3,2.4,5.4,5.4,5.4c3,0,5.4-2.4,5.4-5.4C32.7,24.1,30.3,21.7,27.3,21.7z M34.1,13H20.5c-3.9,0-7.1,3.2-7.1,7.1v13.6
			c0,3.9,3.2,7.1,7.1,7.1h13.6c3.9,0,7.1-3.2,7.1-7.1V20.1C41.1,16.2,38,13,34.1,13z M27.3,35.5c-4.7,0-8.4-3.8-8.4-8.4
			c0-4.7,3.8-8.4,8.4-8.4c4.6,0,8.4,3.8,8.4,8.4C35.8,31.8,32,35.5,27.3,35.5z M36.3,20.1c-1.1,0-2-0.9-2-2s0.9-2,2-2s2,0.9,2,2
			S37.4,20.1,36.3,20.1z M27.3,21.7c-3,0-5.4,2.4-5.4,5.4c0,3,2.4,5.4,5.4,5.4c3,0,5.4-2.4,5.4-5.4C32.7,24.1,30.3,21.7,27.3,21.7z
			 M27.3,21.7c-3,0-5.4,2.4-5.4,5.4c0,3,2.4,5.4,5.4,5.4c3,0,5.4-2.4,5.4-5.4C32.7,24.1,30.3,21.7,27.3,21.7z M27.3,21.7
			c-3,0-5.4,2.4-5.4,5.4c0,3,2.4,5.4,5.4,5.4c3,0,5.4-2.4,5.4-5.4C32.7,24.1,30.3,21.7,27.3,21.7z"/>
	</g>
</g>
</svg>
